<svg width="79" height="72" viewBox="0 0 79 72" fill="none" xmlns="http://www.w3.org/2000/svg">
<rect width="79" height="72" rx="5" fill="black" fill-opacity="0.76"/>
<path d="M39.503 20C21.5059 20 8.49906 34.5 8.49906 34.5C8.49906 34.5 6.99989 36 5.49906 34.5C3.99824 33 5.49906 31.5001 5.49906 31.5001C5.49906 31.5001 19.5059 16.5 39.503 16.5C59.5 16.5 72.9991 31.5001 72.9991 31.5001C72.9991 31.5001 74.5 33.5 72.9991 34.5C71.4981 35.5 70.4991 34.5 70.4991 34.5C70.4991 34.5 57.5 20 39.503 20Z" fill="white"/>
<path fill-rule="evenodd" clip-rule="evenodd" d="M11.003 43.5001C11.003 43.5001 21.503 26.5001 39.503 26.5001C57.503 26.5001 68.003 43.5001 68.003 43.5001C68.003 43.5001 58.003 60 39.503 60C21.003 60 11.003 43.5001 11.003 43.5001ZM39.503 29.5001C32.1852 29.6382 26.2243 35.6863 26.503 43.0001C26.7765 50.1799 32.0298 56.0854 39.2135 55.9501C46.2552 55.8174 53.003 50.0431 53.003 43.0001C53.003 36 46.9575 29.3595 39.503 29.5001ZM39.503 43.0001L45.003 31.5001C48.6171 33.5225 50.0979 35.1159 51.503 39.0001L39.503 43.0001Z" fill="white"/>
<path d="M39.503 20C21.5059 20 8.49906 34.5 8.49906 34.5C8.49906 34.5 6.99989 36 5.49906 34.5C3.99824 33 5.49906 31.5001 5.49906 31.5001C5.49906 31.5001 19.5059 16.5 39.503 16.5C59.5 16.5 72.9991 31.5001 72.9991 31.5001C72.9991 31.5001 74.5 33.5 72.9991 34.5C71.4981 35.5 70.4991 34.5 70.4991 34.5C70.4991 34.5 57.5 20 39.503 20Z" stroke="black"/>
<path fill-rule="evenodd" clip-rule="evenodd" d="M11.003 43.5001C11.003 43.5001 21.503 26.5001 39.503 26.5001C57.503 26.5001 68.003 43.5001 68.003 43.5001C68.003 43.5001 58.003 60 39.503 60C21.003 60 11.003 43.5001 11.003 43.5001ZM39.503 29.5001C32.1852 29.6382 26.2243 35.6863 26.503 43.0001C26.7765 50.1799 32.0298 56.0854 39.2135 55.9501C46.2552 55.8174 53.003 50.0431 53.003 43.0001C53.003 36 46.9575 29.3595 39.503 29.5001ZM39.503 43.0001L45.003 31.5001C48.6171 33.5225 50.0979 35.1159 51.503 39.0001L39.503 43.0001Z" stroke="black"/>
</svg>
