<?xml version="1.0" encoding="UTF-8"?>
<!DOCTYPE svg PUBLIC "-//W3C//DTD SVG 1.1//EN" "http://www.w3.org/Graphics/SVG/1.1/DTD/svg11.dtd">
<!-- Creator: CorelDRAW X5 -->
<svg xmlns="http://www.w3.org/2000/svg" xml:space="preserve" width="35.0546mm" height="44.76mm" shape-rendering="geometricPrecision" text-rendering="geometricPrecision" image-rendering="optimizeQuality" fill-rule="evenodd" clip-rule="evenodd"
viewBox="0 0 1286 1642"
 xmlns:xlink="http://www.w3.org/1999/xlink">
 <defs>
    <linearGradient id="id0" gradientUnits="userSpaceOnUse" x1="973.582" y1="983.812" x2="312.842" y2="302.616">
     <stop offset="0" stop-color="#0052CC"/>
     <stop offset="0.180392" stop-color="#0052CC"/>
     <stop offset="1" stop-color="#2684FF"/>
    </linearGradient>
    <linearGradient id="id1" gradientUnits="userSpaceOnUse" x1="676.782" y1="1282.49" x2="-3.65826" y2="620.822">
     <stop offset="0" stop-color="#0052CC"/>
     <stop offset="0.180392" stop-color="#0052CC"/>
     <stop offset="1" stop-color="#2684FF"/>
    </linearGradient>
 </defs>
<symbol id="Símbolo7" viewBox="1125 -1514 1350 1800">
 <path fill="#0072C6" d="M1125 -1268l0 1308c0,136 302,246 675,246l0 -1554 -675 0 0 0z"/>
 <path fill="#0072C6" d="M1791 286l9 0c373,0 675,-110 675,-246l0 -1308 -684 0 0 1554 0 0 0 0z"/>
 <path fill="white" d="M1791 286l9 0c373,0 675,-110 675,-246l0 -1308 -684 0 0 1554 0 0 0 0z"/>
 <path fill="white" d="M2475 -1268c0,136 -302,246 -675,246 -373,0 -675,-110 -675,-246 0,-136 302,-246 675,-246 373,0 675,110 675,246z"/>
 <path fill="#7FBA00" d="M2337 -1282c0,90 -240,162 -537,162 -297,0 -537,-73 -537,-162 0,-90 240,-162 537,-162 297,0 537,73 537,162z"/>
 <path fill="#B8D432" d="M2224 -1183c70,-28 112,-62 112,-99 0,-90 -240,-162 -537,-162 -297,0 -537,73 -537,162 0,37 42,72 112,99 98,-38 252,-63 424,-63 173,0 326,25 425,63m0 0l0 0 0 0z"/>
 <path fill="white" d="M1586 -360c0,41 -15,72 -44,95 -30,22 -70,33 -122,33 -44,0 -81,-8 -110,-24l0 -96c34,29 72,43 112,43 20,0 35,-4 46,-12 11,-8 16,-18 16,-32 0,-13 -5,-24 -16,-34 -10,-10 -32,-22 -63,-37 -65,-31 -97,-73 -97,-126 0,-38 14,-69 43,-93 28,-23 66,-35 113,-35 41,0 76,6 103,16l0 89c-29,-20 -61,-30 -98,-30 -18,0 -33,4 -43,12 -10,7 -16,18 -16,31 0,0 0,1 0,1 0,14 4,25 13,33 9,9 26,20 53,32 40,19 68,38 85,58 17,20 25,44 25,73l0 0 0 0zm298 -324c0,50 -12,94 -34,131 -23,37 -55,63 -96,78l124 115 -125 0 -88 -100c-38,-1 -72,-12 -102,-30 -30,-19 -54,-44 -71,-77 -16,-33 -25,-69 -25,-109 0,-44 9,-84 27,-119 18,-35 43,-61 76,-80 32,-19 70,-28 112,-28 39,0 74,9 105,27 31,18 55,44 72,77 17,33 26,71 26,114l0 0 0 0zm-101 6c0,-43 -10,-78 -28,-103 -19,-25 -45,-38 -77,-38 -33,0 -60,13 -80,38 -20,25 -30,59 -30,101 0,42 10,75 30,100 20,25 45,37 78,37 33,0 59,-12 79,-36 20,-24 29,-57 29,-100l0 0 0 0zm425 212l-93 0 0 -201 96 0 0 350 158 0 -160 -149 0 0z"/>
</symbol>
<symbol id="A" viewBox="-2163 -5573 7642 10169">
 <path fill="white" stroke="black" stroke-width="126.318" stroke-linecap="round" stroke-linejoin="round" d="M-2100 -4192l0 7344c0,763 1697,1381 3790,1381l0 -8725 -3790 0z"/>
 <path fill="#0072C6" d="M1638 4532l52 0c2093,0 3790,-618 3790,-1381l0 -7344 -3841 0 0 8725 0 0z"/>
 <path fill="white" d="M1638 4532l52 0c2093,0 3790,-618 3790,-1381l0 -7344 -3841 0 0 8725 0 0z"/>
 <path fill="white" d="M5479 -4192c0,762 -1697,1381 -3790,1381 -2093,0 -3790,-618 -3790,-1381 0,-762 1697,-1381 3790,-1381 2093,0 3790,618 3790,1381z"/>
 <path fill="#7FBA00" d="M4704 -4272c0,503 -1350,911 -3015,911 -1665,0 -3015,-408 -3015,-911 0,-503 1350,-911 3015,-911 1665,0 3015,408 3015,911z"/>
 <path fill="#B8D432" d="M4073 -3715c395,-154 632,-347 632,-556 0,-503 -1350,-911 -3015,-911 -1665,0 -3015,408 -3015,911 0,209 237,402 632,556 551,-215 1413,-354 2383,-354 971,0 1832,139 2383,354m0 0l0 0 0 0z"/>
 <path fill="white" d="M486 906c0,228 -82,405 -247,530 -165,125 -392,188 -682,188 -247,0 -453,-45 -619,-134l0 -537c191,163 402,245 632,245 111,0 197,-22 258,-67 61,-45 91,-104 91,-178 0,-73 -29,-136 -88,-189 -58,-54 -177,-123 -356,-208 -365,-172 -547,-407 -547,-704 0,-216 79,-389 239,-519 159,-130 370,-195 634,-195 234,0 427,31 581,92l0 502c-161,-112 -345,-168 -550,-168 -103,0 -185,22 -245,66 -56,39 -90,103 -90,172 0,2 0,4 0,5 0,76 24,138 73,187 49,49 148,109 298,180 224,106 383,214 478,324 95,110 142,246 142,409l0 0zm1673 -1821c0,283 -64,529 -192,736 -128,208 -308,354 -540,438l694 646 -700 0 -495 -559c-212,-8 -404,-64 -575,-169 -171,-105 -303,-249 -395,-432 -93,-183 -139,-387 -139,-612 0,-249 50,-472 151,-667 101,-195 242,-345 424,-450 182,-105 391,-158 627,-158 220,0 417,51 591,153 174,102 309,246 405,434 96,188 145,401 145,639l0 0zm-567 30c0,-244 -53,-436 -159,-578 -106,-142 -250,-212 -434,-212 -187,0 -336,71 -449,213 -112,142 -168,331 -168,567 0,235 55,422 165,563 110,140 256,210 439,210 186,0 333,-68 442,-204 109,-136 164,-322 164,-559l0 0zm2387 1189l-524 0 0 -1128 539 0 0 1966 885 0 -900 -838z"/>
</symbol>
<symbol id="Símbolo6" viewBox="1125 -1514 1350 1800">
 <path fill="#0078D7" d="M1861 -621c-5,-9 -14,-14 -19,-24 -10,-5 -19,-9 -28,-9 -14,0 -24,5 -33,9 -9,5 -14,14 -24,19l-14 28c-5,9 -5,24 -5,37 0,19 0,33 5,42 5,14 10,24 14,28 5,9 14,14 24,14 10,5 19,5 28,5 10,0 19,0 24,-5 10,-5 14,-9 24,-19l14 -28c5,-9 5,-24 5,-42 0,-14 0,-24 -5,-37l-10 -19 0 0 0 0zm-61 -893c-375,0 -675,126 -675,266l0 1262c0,140 305,271 675,271 375,0 675,-126 675,-266l0 -1262c5,-140 -300,-271 -675,-271zm-201 1057c0,9 -5,19 -10,28 -5,9 -10,19 -19,24 -10,9 -19,14 -28,19 -10,5 -24,9 -42,14 -14,5 -33,5 -56,5l-33 0c-10,0 -19,0 -28,-5 -10,0 -19,-5 -24,-5 -10,0 -14,-5 -19,-9l0 -98c5,5 14,9 24,14 10,5 14,9 24,14 9,5 19,5 28,9 9,5 19,5 28,5 10,0 14,0 19,-5 5,0 10,-5 10,-5 5,0 5,-5 5,-9l0 -9c0,-5 0,-9 -5,-14 -5,-5 -5,-9 -10,-9 -5,-5 -10,-5 -19,-9 -9,-5 -14,-5 -24,-9 -14,-5 -28,-14 -42,-24 -10,-9 -19,-14 -28,-24 -10,-9 -14,-19 -14,-28 -5,-9 -5,-24 -5,-33 0,-19 5,-33 10,-47 10,-14 19,-28 28,-37 14,-9 28,-19 47,-24 19,-5 37,-9 61,-9l33 0c10,0 19,0 28,5 9,0 14,5 24,5 10,0 14,5 19,5l0 94c-5,-5 -10,-5 -19,-9 -5,-5 -14,-5 -24,-9 -10,-5 -14,-5 -24,-5l-28 0c-14,0 -24,0 -28,5 -10,5 -10,9 -10,19 0,5 0,9 5,9 0,5 5,5 10,9 5,5 10,5 14,9 5,5 14,5 24,9 14,5 28,14 42,19 14,9 24,14 33,24 10,9 14,19 24,28 5,9 10,24 10,42 -6,6 -9,15 -10,24l0 0 0 -1zm286 154l-80 -84c-24,0 -47,-9 -66,-14 -19,-9 -37,-24 -51,-37 -14,-14 -28,-33 -37,-56 -10,-24 -14,-47 -14,-75 0,-28 5,-56 14,-79 10,-24 24,-42 37,-61 14,-19 37,-28 56,-37 24,-9 47,-14 75,-14 28,0 51,5 70,14 21,8 40,21 56,37 14,14 28,37 37,56 10,24 14,47 14,79 0,19 0,42 -9,56 -5,19 -14,33 -24,47 -10,14 -19,28 -33,37 -14,9 -24,19 -42,28l122 103 -126 0 0 0 0 0zm408 -538l-248 0 0 -360 108 0 0 276 126 0 0 84 14 0 0 0zm-492 -281c-267,0 -483,-65 -483,-145 0,-79 216,-145 483,-145 267,0 483,65 483,145 0,79 -216,145 -483,145l0 0z"/>
</symbol>
<symbol id="Símbolo1" viewBox="-2100 -5573 7579 10106">
 <path fill="#0072C6" d="M-2100 -4192l0 7344c0,763 1697,1381 3790,1381l0 -8725 -3790 0z"/>
 <path fill="#0072C6" d="M1638 4532l52 0c2093,0 3790,-618 3790,-1381l0 -7344 -3841 0 0 8725 0 0z"/>
 <path fill="white" d="M1638 4532l52 0c2093,0 3790,-618 3790,-1381l0 -7344 -3841 0 0 8725 0 0z"/>
 <path fill="white" d="M5479 -4192c0,762 -1697,1381 -3790,1381 -2093,0 -3790,-618 -3790,-1381 0,-762 1697,-1381 3790,-1381 2093,0 3790,618 3790,1381z"/>
 <path fill="#7FBA00" d="M4704 -4272c0,503 -1350,911 -3015,911 -1665,0 -3015,-408 -3015,-911 0,-503 1350,-911 3015,-911 1665,0 3015,408 3015,911z"/>
 <path fill="#B8D432" d="M4073 -3715c395,-154 632,-347 632,-556 0,-503 -1350,-911 -3015,-911 -1665,0 -3015,408 -3015,911 0,209 237,402 632,556 551,-215 1413,-354 2383,-354 971,0 1832,139 2383,354m0 0l0 0 0 0z"/>
 <path fill="white" d="M486 906c0,228 -82,405 -247,530 -165,125 -392,188 -682,188 -247,0 -453,-45 -619,-134l0 -537c191,163 402,245 632,245 111,0 197,-22 258,-67 61,-45 91,-104 91,-178 0,-73 -29,-136 -88,-189 -58,-54 -177,-123 -356,-208 -365,-172 -547,-407 -547,-704 0,-216 79,-389 239,-519 159,-130 370,-195 634,-195 234,0 427,31 581,92l0 502c-161,-112 -345,-168 -550,-168 -103,0 -185,22 -245,66 -56,39 -90,103 -90,172 0,2 0,4 0,5 0,76 24,138 73,187 49,49 148,109 298,180 224,106 383,214 478,324 95,110 142,246 142,409l0 0zm1673 -1821c0,283 -64,529 -192,736 -128,208 -308,354 -540,438l694 646 -700 0 -495 -559c-212,-8 -404,-64 -575,-169 -171,-105 -303,-249 -395,-432 -93,-183 -139,-387 -139,-612 0,-249 50,-472 151,-667 101,-195 242,-345 424,-450 182,-105 391,-158 627,-158 220,0 417,51 591,153 174,102 309,246 405,434 96,188 145,401 145,639l0 0zm-567 30c0,-244 -53,-436 -159,-578 -106,-142 -250,-212 -434,-212 -187,0 -336,71 -449,213 -112,142 -168,331 -168,567 0,235 55,422 165,563 110,140 256,210 439,210 186,0 333,-68 442,-204 109,-136 164,-322 164,-559l0 0zm2387 1189l-524 0 0 -1128 539 0 0 1966 885 0 -900 -838z"/>
</symbol>
<symbol id="Símbolo2" viewBox="-2100 -5573 7579 10106">
 <path fill="#0078D7" d="M2032 -560c-26,-53 -79,-79 -105,-131 -53,-26 -105,-53 -158,-53 -79,0 -132,26 -184,53 -53,26 -79,79 -132,105l-79 158c-26,53 -26,131 -26,210 0,105 0,184 26,236 26,79 53,131 79,158 26,53 79,79 132,79 53,26 105,26 158,26 53,0 105,0 131,-26 53,-26 79,-53 132,-105l79 -158c26,-52 26,-131 26,-236 0,-79 0,-131 -26,-210l-53 -105 0 0zm-342 -5013c-2105,0 -3789,709 -3789,1496l0 7087c0,787 1710,1522 3789,1522 2105,0 3789,-709 3789,-1496l0 -7087c26,-787 -1684,-1522 -3789,-1522zm-1132 5932c0,53 -26,105 -53,158 -26,53 -53,105 -105,131 -53,53 -105,79 -158,105 -53,26 -132,53 -237,79 -79,26 -184,26 -316,26l-184 0c-53,0 -105,0 -158,-26 -53,0 -105,-26 -132,-26 -53,0 -79,-26 -105,-53l0 -551c26,26 79,53 132,79 53,26 79,53 131,79 53,26 105,26 158,53 53,26 105,26 158,26 53,0 79,0 105,-26 26,0 53,-26 53,-26 26,0 26,-26 26,-53l0 -53c0,-26 0,-53 -26,-79 -26,-26 -26,-53 -53,-53 -26,-26 -53,-26 -105,-53 -53,-26 -79,-26 -132,-53 -79,-26 -158,-79 -237,-131 -53,-53 -105,-79 -158,-131 -53,-53 -79,-105 -79,-158 -26,-52 -26,-131 -26,-184 0,-105 26,-184 53,-262 53,-79 105,-158 158,-210 79,-52 158,-105 263,-131 105,-26 211,-53 342,-53l184 0c53,0 105,0 158,26 53,0 79,26 132,26 53,0 79,26 105,26l0 525c-26,-26 -53,-26 -105,-52 -26,-26 -79,-26 -132,-53 -53,-26 -79,-26 -132,-26l-158 0c-79,0 -132,0 -158,26 -53,26 -53,53 -53,105 0,26 0,53 26,53 0,26 26,26 53,53 26,26 53,26 79,53 26,26 79,26 132,53 79,26 158,79 237,105 79,53 131,79 184,131 53,52 79,105 132,158 26,53 53,131 53,236 -33,36 -52,83 -53,131l0 0zm1605 866l-447 -472c-132,0 -263,-52 -368,-79 -105,-53 -210,-131 -289,-210 -79,-79 -158,-184 -211,-315 -53,-131 -79,-262 -79,-420 0,-158 26,-315 79,-446 53,-131 132,-236 211,-341 79,-105 210,-158 316,-210 132,-53 263,-79 421,-79 158,0 289,26 395,79 118,48 226,119 316,210 79,79 158,210 210,315 53,131 79,262 79,446 0,105 0,236 -53,315 -26,105 -79,184 -132,262 -53,79 -105,158 -184,210 -79,52 -131,105 -237,158l684 577 -711 0 0 0zm2290 -3018l-1395 0 0 -2021 605 0 0 1549 711 0 0 472 79 0zm-2763 -1575c-1500,0 -2710,-367 -2710,-814 0,-446 1211,-814 2711,-814 1500,0 2711,367 2711,814 0,446 -1211,814 -2711,814l0 0z"/>
</symbol>
<symbol id="Símbolo4" viewBox="1125 -1514 1350 1800">
 <path fill="#0078D7" d="M1861 -621c-5,-9 -14,-14 -19,-24 -10,-5 -19,-9 -28,-9 -14,0 -24,5 -33,9 -9,5 -14,14 -24,19l-14 28c-5,9 -5,24 -5,37 0,19 0,33 5,42 5,14 10,24 14,28 5,9 14,14 24,14 10,5 19,5 28,5 10,0 19,0 24,-5 10,-5 14,-9 24,-19l14 -28c5,-9 5,-24 5,-42 0,-14 0,-24 -5,-37l-10 -19 0 0 0 0zm-61 -893c-375,0 -675,126 -675,266l0 1262c0,140 305,271 675,271 375,0 675,-126 675,-266l0 -1262c5,-140 -300,-271 -675,-271zm-201 1057c0,9 -5,19 -10,28 -5,9 -10,19 -19,24 -10,9 -19,14 -28,19 -10,5 -24,9 -42,14 -14,5 -33,5 -56,5l-33 0c-10,0 -19,0 -28,-5 -10,0 -19,-5 -24,-5 -10,0 -14,-5 -19,-9l0 -98c5,5 14,9 24,14 10,5 14,9 24,14 9,5 19,5 28,9 9,5 19,5 28,5 10,0 14,0 19,-5 5,0 10,-5 10,-5 5,0 5,-5 5,-9l0 -9c0,-5 0,-9 -5,-14 -5,-5 -5,-9 -10,-9 -5,-5 -10,-5 -19,-9 -9,-5 -14,-5 -24,-9 -14,-5 -28,-14 -42,-24 -10,-9 -19,-14 -28,-24 -10,-9 -14,-19 -14,-28 -5,-9 -5,-24 -5,-33 0,-19 5,-33 10,-47 10,-14 19,-28 28,-37 14,-9 28,-19 47,-24 19,-5 37,-9 61,-9l33 0c10,0 19,0 28,5 9,0 14,5 24,5 10,0 14,5 19,5l0 94c-5,-5 -10,-5 -19,-9 -5,-5 -14,-5 -24,-9 -10,-5 -14,-5 -24,-5l-28 0c-14,0 -24,0 -28,5 -10,5 -10,9 -10,19 0,5 0,9 5,9 0,5 5,5 10,9 5,5 10,5 14,9 5,5 14,5 24,9 14,5 28,14 42,19 14,9 24,14 33,24 10,9 14,19 24,28 5,9 10,24 10,42 -6,6 -9,15 -10,24l0 0 0 -1zm286 154l-80 -84c-24,0 -47,-9 -66,-14 -19,-9 -37,-24 -51,-37 -14,-14 -28,-33 -37,-56 -10,-24 -14,-47 -14,-75 0,-28 5,-56 14,-79 10,-24 24,-42 37,-61 14,-19 37,-28 56,-37 24,-9 47,-14 75,-14 28,0 51,5 70,14 21,8 40,21 56,37 14,14 28,37 37,56 10,24 14,47 14,79 0,19 0,42 -9,56 -5,19 -14,33 -24,47 -10,14 -19,28 -33,37 -14,9 -24,19 -42,28l122 103 -126 0 0 0 0 0zm408 -538l-248 0 0 -360 108 0 0 276 126 0 0 84 14 0 0 0zm-492 -281c-267,0 -483,-65 -483,-145 0,-79 216,-145 483,-145 267,0 483,65 483,145 0,79 -216,145 -483,145l0 0z"/>
</symbol>
<symbol id="Símbolo3" viewBox="-2100 -5573 7579 10106">
 <path fill="#0078D7" d="M2032 -560c-26,-53 -79,-79 -105,-131 -53,-26 -105,-53 -158,-53 -79,0 -132,26 -184,53 -53,26 -79,79 -132,105l-79 158c-26,53 -26,131 -26,210 0,105 0,184 26,236 26,79 53,131 79,158 26,53 79,79 132,79 53,26 105,26 158,26 53,0 105,0 131,-26 53,-26 79,-53 132,-105l79 -158c26,-52 26,-131 26,-236 0,-79 0,-131 -26,-210l-53 -105 0 0zm-342 -5013c-2105,0 -3789,709 -3789,1496l0 7087c0,787 1710,1522 3789,1522 2105,0 3789,-709 3789,-1496l0 -7087c26,-787 -1684,-1522 -3789,-1522zm-1132 5932c0,53 -26,105 -53,158 -26,53 -53,105 -105,131 -53,53 -105,79 -158,105 -53,26 -132,53 -237,79 -79,26 -184,26 -316,26l-184 0c-53,0 -105,0 -158,-26 -53,0 -105,-26 -132,-26 -53,0 -79,-26 -105,-53l0 -551c26,26 79,53 132,79 53,26 79,53 131,79 53,26 105,26 158,53 53,26 105,26 158,26 53,0 79,0 105,-26 26,0 53,-26 53,-26 26,0 26,-26 26,-53l0 -53c0,-26 0,-53 -26,-79 -26,-26 -26,-53 -53,-53 -26,-26 -53,-26 -105,-53 -53,-26 -79,-26 -132,-53 -79,-26 -158,-79 -237,-131 -53,-53 -105,-79 -158,-131 -53,-53 -79,-105 -79,-158 -26,-52 -26,-131 -26,-184 0,-105 26,-184 53,-262 53,-79 105,-158 158,-210 79,-52 158,-105 263,-131 105,-26 211,-53 342,-53l184 0c53,0 105,0 158,26 53,0 79,26 132,26 53,0 79,26 105,26l0 525c-26,-26 -53,-26 -105,-52 -26,-26 -79,-26 -132,-53 -53,-26 -79,-26 -132,-26l-158 0c-79,0 -132,0 -158,26 -53,26 -53,53 -53,105 0,26 0,53 26,53 0,26 26,26 53,53 26,26 53,26 79,53 26,26 79,26 132,53 79,26 158,79 237,105 79,53 131,79 184,131 53,52 79,105 132,158 26,53 53,131 53,236 -33,36 -52,83 -53,131l0 0zm1605 866l-447 -472c-132,0 -263,-52 -368,-79 -105,-53 -210,-131 -289,-210 -79,-79 -158,-184 -211,-315 -53,-131 -79,-262 -79,-420 0,-158 26,-315 79,-446 53,-131 132,-236 211,-341 79,-105 210,-158 316,-210 132,-53 263,-79 421,-79 158,0 289,26 395,79 118,48 226,119 316,210 79,79 158,210 210,315 53,131 79,262 79,446 0,105 0,236 -53,315 -26,105 -79,184 -132,262 -53,79 -105,158 -184,210 -79,52 -131,105 -237,158l684 577 -711 0 0 0zm2290 -3018l-1395 0 0 -2021 605 0 0 1549 711 0 0 472 79 0zm-2763 -1575c-1500,0 -2710,-367 -2710,-814 0,-446 1211,-814 2711,-814 1500,0 2711,367 2711,814 0,446 -1211,814 -2711,814l0 0z"/>
</symbol>
<symbol id="Símbolo5" viewBox="1114 -1508 1350 1797">
 <path fill="white" stroke="black" stroke-width="22.3165" stroke-linecap="round" stroke-linejoin="round" d="M1125 -1264l0 1298c0,135 300,244 670,244l0 -1541 -670 0 0 0z"/>
 <path fill="#0072C6" d="M1785 277l9 0c370,0 670,-109 670,-244l0 -1298 -679 0 0 1541 0 0 0 0z"/>
 <path fill="white" d="M1785 277l9 0c370,0 670,-109 670,-244l0 -1298 -679 0 0 1541 0 0 0 0z"/>
 <path fill="white" d="M2463 -1264c0,135 -300,244 -670,244 -370,0 -670,-109 -670,-244 0,-135 300,-244 670,-244 370,0 670,109 670,244z"/>
 <path fill="#7FBA00" d="M2327 -1278c0,89 -238,161 -533,161 -294,0 -533,-72 -533,-161 0,-89 238,-161 533,-161 294,0 533,72 533,161z"/>
 <path fill="#B8D432" d="M2215 -1180c70,-27 112,-61 112,-98 0,-89 -238,-161 -533,-161 -294,0 -533,72 -533,161 0,37 42,71 112,98 97,-38 250,-62 421,-62 172,0 323,25 421,62m0 0l0 0 0 0z"/>
 <path fill="white" d="M1581 -363c0,40 -15,72 -44,94 -29,22 -69,33 -121,33 -44,0 -80,-8 -109,-24l0 -95c34,29 71,43 112,43 20,0 35,-4 45,-12 11,-8 16,-18 16,-32 0,-13 -5,-24 -15,-34 -10,-9 -31,-22 -63,-37 -64,-30 -96,-72 -96,-125 0,-38 14,-69 42,-92 28,-23 65,-34 112,-34 41,0 76,6 102,16l0 89c-28,-20 -61,-30 -97,-30 -18,0 -33,4 -43,12 -10,7 -16,18 -16,30 0,0 0,1 0,1 0,13 4,25 13,33 9,9 26,19 53,32 40,19 68,38 85,57 17,19 25,44 25,72l0 0 0 0zm295 -322c0,50 -11,93 -34,130 -23,37 -55,62 -95,78l123 114 -124 0 -87 -99c-38,-1 -71,-11 -102,-30 -30,-19 -53,-44 -70,-76 -16,-32 -25,-68 -25,-108 0,-44 9,-83 26,-118 18,-34 43,-61 75,-79 32,-19 69,-28 111,-28 39,0 74,9 104,27 31,18 55,44 72,77 17,33 26,71 26,113l0 0 0 0zm-100 6c0,-43 -9,-77 -28,-102 -19,-25 -44,-38 -77,-38 -33,0 -59,13 -79,38 -20,25 -30,59 -30,100 0,42 10,75 29,99 19,25 45,37 78,37 33,0 59,-12 78,-36 19,-24 29,-57 29,-99l0 0 0 0zm422 210l-93 0 0 -199 95 0 0 347 157 0 -159 -148 0 0z"/>
</symbol>
 <g id="Capa_x0020_1">
  <metadata id="CorelCorpID_0Corel-Layer"/>
  <g id="_173322128">
   <path fill="#2684FF" d="M1233 0l-619 0c0,74 29,145 82,198 52,52 124,82 198,82l114 0 0 110c0,154 125,279 279,279l0 -615c0,-30 -24,-54 -54,-54z"/>
   <path fill="url(#id0)" d="M926 309l-619 0c0,154 125,279 279,279l114 0 0 111c0,154 125,279 280,279l0 -615c0,-30 -24,-54 -54,-54z"/>
   <path fill="url(#id1)" d="M619 617l-619 0c0,154 125,280 280,280l114 0 0 110c0,154 125,279 279,279l0 -615c0,-30 -24,-54 -54,-54z"/>
  </g>
  <path fill="#FEFEFE" fill-rule="nonzero" d="M472 1594l19 -3c0,12 3,21 7,25 4,5 10,7 17,7 5,0 10,-1 14,-4 4,-2 7,-6 8,-10 1,-4 2,-11 2,-20l0 -112 21 0 0 110c0,14 -2,24 -5,31 -3,7 -8,13 -16,17 -7,4 -15,6 -25,6 -14,0 -25,-4 -33,-12 -8,-8 -11,-20 -11,-36z"/>
  <path id="1" fill="#FEFEFE" fill-rule="nonzero" d="M594 1501l0 -23 20 0 0 23 -20 0zm0 139l0 -117 20 0 0 117 -20 0z"/>
  <path id="12" fill="#FEFEFE" fill-rule="nonzero" d="M644 1640l0 -117 18 0 0 18c5,-8 9,-14 13,-16 4,-3 8,-4 13,-4 7,0 13,2 20,6l-7 18c-5,-3 -10,-4 -15,-4 -4,0 -8,1 -12,4 -3,3 -6,6 -7,11 -2,7 -3,15 -3,23l0 61 -20 0z"/>
  <path id="123" fill="#FEFEFE" fill-rule="nonzero" d="M796 1625c-7,6 -14,11 -21,13 -7,3 -14,4 -22,4 -13,0 -23,-3 -30,-9 -7,-6 -10,-14 -10,-24 0,-6 1,-11 4,-16 3,-5 6,-9 10,-11 4,-3 9,-5 14,-7 4,-1 10,-2 18,-3 16,-2 28,-4 35,-7 0,-3 0,-4 0,-5 0,-8 -2,-14 -6,-17 -5,-5 -13,-7 -23,-7 -9,0 -16,2 -21,5 -4,3 -8,9 -10,17l-19 -3c2,-8 5,-15 9,-20 4,-5 10,-9 18,-12 8,-3 17,-4 27,-4 10,0 18,1 24,4 6,2 11,5 14,9 3,4 5,8 6,14 1,3 1,9 1,18l0 26c0,19 0,30 1,35 1,5 3,10 5,14l-21 0c-2,-4 -3,-9 -4,-14zm-2 -44c-7,3 -18,5 -32,8 -8,1 -14,2 -17,4 -3,1 -6,4 -8,6 -2,3 -3,6 -3,9 0,5 2,10 6,13 4,4 10,5 18,5 8,0 14,-2 20,-5 6,-3 10,-8 13,-14 2,-4 3,-11 3,-20l0 -7z"/>
 </g>
</svg>
